<svg version="1.0" viewBox="0 0 600 400" xmlns="http://www.w3.org/2000/svg" width="1200" height="800">
<path d="m85.526 129.12c-104.09 1.7178-20.103 16.61-25.02 35.387-32.401 6.1638-60.883-36.82-40.32-63.649 12.471-23.36 54.108-26.682 64.546 0.14523 4.0322 8.7338 4.6439 19.206 0.79466 28.117zm-10.999-7.2501c22.678-25.211-48.936-38.671-29.038-8.6423 8.6909 5.8385 20.436 2.5619 29.038 8.6423zm102.33-1.693c-26.715 7.2431-42.451 40.108-24.539 62.916-9.7468 11.657-20.573-7.3748-16.713-16.58-7.1612-16.618-47.691 16.738-34.985-4.7851 24.129-8.5534 19.261-33.11 17.1-51.417 12.812-3.0273 14.771 31.489 32.661 15.843 7.5603-4.9861 17.647-14.443 26.476-5.9772zm40.678 52.486c-26.868-25.427-32.946 47.158-2.3182 24.736 9.1853-3.9204 20.802-26.075 2.3182-24.736zm25.635 2.395c4.2422 27.723-30.384 47.248-53.37 33.574-24.926-8.5004-17.351-54.652 10.692-48.956 13.645 12.95 45.639-10.013 16.962-14.567-15.438-2.4032-15.922-23.337 2.435-15.115 17.977 5.2345 33.196 26.849 23.281 45.064zm132.39 36.285c-2.3771 12.236-7.7873 47.244-22.309 34.296 5.622-18.994 23.315-62.55-12.424-59.118-20.193 5.1485-13.043 52.456-34.652 43.046 1.1418-18.782 27.683-48.603-4.4586-56.395-31.553-4.9286-21.399 32.342-35.462 47.044-15.16-10.88 1.1763-40.849 8.5515-55.126 27.47-9.6451 108.68 9.3624 100.75 46.251zm25.883 46.058c7.6102 12.333-27.574 68.069-26.062 41.364 9.2128-23.886 21.611-78.762 32.236-98.875 23.252-6.8722 57.5 3.1626 58.836 31.311 2.9198 25.844-22.544 55.497-49.561 44.855-7.788-3.0946-14.548-10.045-15.449-18.654zm48.987-13.082c17.684-24-30.838-47.92-41.733-21.904-10.663 14.171-1.9506 34.518 13.684 40.548 14.889 7.5699 25.504-5.3073 28.049-18.642zm52.646-55.502c12.703 15.108-4.2449 97.999-26.038 90.497 4.7628-31.259 19.465-59.643 26.038-90.497zm81.109 93.113c-104.09 1.7179-20.103 16.61-25.02 35.387-32.401 6.1638-60.883-36.82-40.32-63.649 12.471-23.36 54.108-26.682 64.546 0.14529 4.0322 8.7338 4.6439 19.206 0.79465 28.117zm-10.999-7.2501c22.678-25.211-48.936-38.671-29.038-8.6423 8.6909 5.8385 20.436 2.5619 29.038 8.6423z" fill="#f00" fill-opacity=".25"/>
</svg>
