<svg version="1.1" viewBox="0 0 100 20" width="1000" height="200" xmlns="http://www.w3.org/2000/svg">
<clipPath id="a">
<rect width="100" height="20" rx="3" fill="#fff"/>
</clipPath>
<g clip-path="url(#a)">
<path d="M0 0h37v20H0z" fill="#555"/>
<path d="M37 0h63v20H37z" fill="#4c1"/>
</g>
<g fill="#fff">
<g transform="scale(.1)" fill="#010101" fill-opacity=".3">
<path d="m79.988 72.764v17.08h20.356v7.6807h-20.356v32.656q0 7.3584 1.9873 9.4531 2.041 2.0947 8.2178 2.0947h10.151v8.2715h-10.151q-11.44 0-15.791-4.2432-4.3506-4.2969-4.3506-15.576v-32.656h-7.251v-7.6807h7.251v-17.08z"/>
<path d="m165.16 117.45v4.834h-45.439q0.64453 10.205 6.123 15.576 5.5322 5.3174 15.361 5.3174 5.6934 0 11.011-1.3965 5.3711-1.3965 10.635-4.1895v9.3457q-5.3174 2.2559-10.903 3.4375t-11.333 1.1816q-14.395 0-22.827-8.3789-8.3789-8.3789-8.3789-22.666 0-14.771 7.9492-23.418 8.0029-8.7012 21.538-8.7012 12.139 0 19.175 7.8418 7.0898 7.7881 7.0898 21.216zm-9.8828-2.9004q-0.10742-8.1104-4.5654-12.944-4.4043-4.834-11.709-4.834-8.2715 0-13.267 4.6728-4.9414 4.6728-5.6934 13.159z"/>
<path d="m220.04 91.616v9.3457q-4.1894-2.1484-8.7012-3.2227t-9.3457-1.0742q-7.3584 0-11.064 2.2559-3.6523 2.2559-3.6523 6.7676 0 3.4375 2.6318 5.4248 2.6318 1.9336 10.581 3.7061l3.3838 0.75195q10.527 2.2559 14.932 6.3916 4.458 4.082 4.458 11.44 0 8.3789-6.6602 13.267-6.6064 4.8877-18.208 4.8877-4.834 0-10.098-0.9668-5.21-0.91309-11.011-2.793v-10.205q5.4785 2.8467 10.796 4.2969 5.3174 1.3965 10.527 1.3965 6.9824 0 10.742-2.3633 3.7598-2.417 3.7598-6.7676 0-4.0283-2.7393-6.1768-2.6855-2.1484-11.87-4.1358l-3.4375-0.80566q-9.1846-1.9336-13.267-5.9082-4.082-4.0283-4.082-11.011 0-8.4863 6.0156-13.105 6.0156-4.6191 17.08-4.6191 5.4785 0 10.312 0.80566 4.834 0.80566 8.916 2.417z"/>
<path d="m249.13 72.764v17.08h20.356v7.6807h-20.356v32.656q0 7.3584 1.9873 9.4531 2.041 2.0947 8.2178 2.0947h10.151v8.2715h-10.151q-11.44 0-15.791-4.2432-4.3506-4.2969-4.3506-15.576v-32.656h-7.251v-7.6807h7.251v-17.08z"/>
<path d="m321.2 91.616v9.3457q-4.1894-2.1484-8.7012-3.2227t-9.3457-1.0742q-7.3584 0-11.064 2.2559-3.6523 2.2559-3.6523 6.7676 0 3.4375 2.6318 5.4248 2.6318 1.9336 10.581 3.7061l3.3838 0.75195q10.527 2.2559 14.932 6.3916 4.458 4.082 4.458 11.44 0 8.3789-6.6602 13.267-6.6064 4.8877-18.208 4.8877-4.834 0-10.098-0.9668-5.21-0.91309-11.011-2.793v-10.205q5.4785 2.8467 10.796 4.2969 5.3174 1.3965 10.527 1.3965 6.9824 0 10.742-2.3633 3.7598-2.417 3.7598-6.7676 0-4.0283-2.7393-6.1768-2.6856-2.1484-11.87-4.1358l-3.4375-0.80566q-9.1846-1.9336-13.267-5.9082-4.082-4.0283-4.082-11.011 0-8.4863 6.0156-13.105 6.0156-4.6191 17.08-4.6191 5.4785 0 10.312 0.80566 4.834 0.80566 8.916 2.417z"/>
</g>
<g transform="scale(.1)">
<path d="m79.988 62.764v17.08h20.356v7.6807h-20.356v32.656q0 7.3584 1.9873 9.4531 2.041 2.0947 8.2178 2.0947h10.151v8.2715h-10.151q-11.44 0-15.791-4.2432-4.3506-4.2969-4.3506-15.576v-32.656h-7.251v-7.6807h7.251v-17.08z"/>
<path d="m165.16 107.45v4.834h-45.439q0.64453 10.205 6.123 15.576 5.5322 5.3174 15.361 5.3174 5.6934 0 11.011-1.3965 5.3711-1.3965 10.635-4.1895v9.3457q-5.3174 2.2559-10.903 3.4375t-11.333 1.1816q-14.395 0-22.827-8.3789-8.3789-8.3789-8.3789-22.666 0-14.771 7.9492-23.418 8.0029-8.7012 21.538-8.7012 12.139 0 19.175 7.8418 7.0898 7.7881 7.0898 21.216zm-9.8828-2.9004q-0.10742-8.1104-4.5654-12.944-4.4043-4.834-11.709-4.834-8.2715 0-13.267 4.6729-4.9414 4.6729-5.6934 13.159z"/>
<path d="m220.04 81.616v9.3457q-4.1894-2.1484-8.7012-3.2227t-9.3457-1.0742q-7.3584 0-11.064 2.2559-3.6523 2.2559-3.6523 6.7676 0 3.4375 2.6318 5.4248 2.6318 1.9336 10.581 3.7061l3.3838 0.75195q10.527 2.2559 14.932 6.3916 4.458 4.082 4.458 11.44 0 8.3789-6.6602 13.267-6.6064 4.8877-18.208 4.8877-4.834 0-10.098-0.9668-5.21-0.91309-11.011-2.793v-10.205q5.4785 2.8467 10.796 4.2969 5.3174 1.3965 10.527 1.3965 6.9824 0 10.742-2.3633 3.7598-2.417 3.7598-6.7676 0-4.0283-2.7393-6.1768-2.6855-2.1484-11.87-4.1358l-3.4375-0.80566q-9.1846-1.9336-13.267-5.9082-4.082-4.0283-4.082-11.011 0-8.4863 6.0156-13.105 6.0156-4.6191 17.08-4.6191 5.4785 0 10.312 0.80566 4.834 0.80566 8.916 2.417z"/>
<path d="m249.13 62.764v17.08h20.356v7.6807h-20.356v32.656q0 7.3584 1.9873 9.4531 2.041 2.0947 8.2178 2.0947h10.151v8.2715h-10.151q-11.44 0-15.791-4.2432-4.3506-4.2969-4.3506-15.576v-32.656h-7.251v-7.6807h7.251v-17.08z"/>
<path d="m321.2 81.616v9.3457q-4.1894-2.1484-8.7012-3.2227t-9.3457-1.0742q-7.3584 0-11.064 2.2559-3.6523 2.2559-3.6523 6.7676 0 3.4375 2.6318 5.4248 2.6318 1.9336 10.581 3.7061l3.3838 0.75195q10.527 2.2559 14.932 6.3916 4.458 4.082 4.458 11.44 0 8.3789-6.6602 13.267-6.6064 4.8877-18.208 4.8877-4.834 0-10.098-0.9668-5.21-0.91309-11.011-2.793v-10.205q5.4785 2.8467 10.796 4.2969 5.3174 1.3965 10.527 1.3965 6.9824 0 10.742-2.3633 3.7598-2.417 3.7598-6.7676 0-4.0283-2.7393-6.1768-2.6856-2.1484-11.87-4.1358l-3.4375-0.80566q-9.1846-1.9336-13.267-5.9082-4.082-4.0283-4.082-11.011 0-8.4863 6.0156-13.105 6.0156-4.6191 17.08-4.6191 5.4785 0 10.312 0.80566 4.834 0.80566 8.916 2.417z"/>
</g>
<g transform="scale(.1)" fill="#010101" fill-opacity=".3">
<path d="m460.3 119.22q0-10.742-4.458-16.65-4.4043-5.9082-12.407-5.9082-7.9492 0-12.407 5.9082-4.4043 5.9082-4.4043 16.65 0 10.688 4.4043 16.597 4.458 5.9082 12.407 5.9082 8.0029 0 12.407-5.9082 4.458-5.9082 4.458-16.597zm9.8828 23.311q0 15.361-6.8213 22.827-6.8213 7.5195-20.894 7.5195-5.21 0-9.8291-0.80566-4.6191-0.75196-8.9697-2.3633v-9.6142q4.3506 2.3633 8.5938 3.4912 4.2432 1.1279 8.6475 1.1279 9.7217 0 14.556-5.1025 4.834-5.0488 4.834-15.308v-4.8877q-3.0615 5.3174-7.8418 7.9492-4.7803 2.6318-11.44 2.6318-11.064 0-17.832-8.4326-6.7676-8.4326-6.7676-22.344 0-13.965 6.7676-22.397 6.7676-8.4326 17.832-8.4326 6.6602 0 11.44 2.6318 4.7803 2.6318 7.8418 7.9492v-9.1309h9.8828z"/>
<path d="m524.7 99.082q-1.665-0.9668-3.6524-1.3965-1.9336-0.4834-4.2969-0.4834-8.3789 0-12.891 5.4785-4.458 5.4248-4.458 15.63v31.689h-9.9365v-60.156h9.9365v9.3457q3.1152-5.4785 8.1104-8.1104 4.9951-2.6855 12.139-2.6855 1.0205 0 2.2559 0.16113 1.2354 0.10742 2.7393 0.37598z"/>
<path d="m583.56 117.45v4.834h-45.439q0.64453 10.205 6.123 15.576 5.5322 5.3174 15.361 5.3174 5.6934 0 11.011-1.3965 5.3711-1.3965 10.635-4.1895v9.3457q-5.3174 2.2559-10.903 3.4375t-11.333 1.1816q-14.395 0-22.827-8.3789-8.3789-8.3789-8.3789-22.666 0-14.771 7.9492-23.418 8.0029-8.7012 21.538-8.7012 12.139 0 19.175 7.8418 7.0898 7.7881 7.0898 21.216zm-9.8828-2.9004q-0.10742-8.1104-4.5654-12.944-4.4043-4.834-11.709-4.834-8.2715 0-13.267 4.6728-4.9414 4.6728-5.6934 13.159z"/>
<path d="m650.54 117.45v4.834h-45.439q0.64453 10.205 6.123 15.576 5.5322 5.3174 15.361 5.3174 5.6934 0 11.011-1.3965 5.3711-1.3965 10.635-4.1895v9.3457q-5.3174 2.2559-10.903 3.4375t-11.333 1.1816q-14.395 0-22.827-8.3789-8.3789-8.3789-8.3789-22.666 0-14.771 7.9492-23.418 8.0029-8.7012 21.538-8.7012 12.139 0 19.175 7.8418 7.0898 7.7881 7.0898 21.216zm-9.8828-2.9004q-0.10742-8.1104-4.5654-12.944-4.4043-4.834-11.709-4.834-8.2715 0-13.267 4.6728-4.9414 4.6728-5.6934 13.159z"/>
<path d="m716.06 113.69v36.309h-9.8828v-35.986q0-8.54-3.3301-12.783-3.3301-4.2432-9.9902-4.2432-8.0029 0-12.622 5.1025-4.6191 5.1025-4.6191 13.911v33.999h-9.9365v-60.156h9.9365v9.3457q3.5449-5.4248 8.3252-8.1104 4.834-2.6855 11.118-2.6855 10.366 0 15.684 6.4453 5.3174 6.3916 5.3174 18.853z"/>
<path d="m812.68 119.98q0-10.903-4.5117-17.08-4.458-6.2305-12.3-6.2305-7.8418 0-12.354 6.2305-4.458 6.1768-4.458 17.08t4.458 17.134q4.5117 6.1768 12.354 6.1768 7.8418 0 12.3-6.1768 4.5117-6.2305 4.5117-17.134zm-33.623-21.001q3.1152-5.3711 7.8418-7.9492 4.7803-2.6318 11.387-2.6318 10.957 0 17.778 8.7012 6.875 8.7012 6.875 22.881 0 14.18-6.875 22.881-6.8213 8.7012-17.778 8.7012-6.6064 0-11.387-2.5781-4.7266-2.6318-7.8418-8.0029v9.0234h-9.9365v-83.574h9.9365z"/>
<path d="m865.96 119.76q-11.978 0-16.597 2.7393-4.6192 2.7393-4.6192 9.3457 0 5.2637 3.4375 8.3789 3.4912 3.0615 9.4531 3.0615 8.2178 0 13.159-5.8008 4.9951-5.8545 4.9951-15.522v-2.2022zm19.712-4.082v34.321h-9.8828v-9.1309q-3.3838 5.4785-8.4326 8.1104-5.0488 2.5781-12.354 2.5781-9.2383 0-14.717-5.1562-5.4248-5.21-5.4248-13.911 0-10.151 6.7676-15.308 6.8213-5.1562 20.303-5.1562h13.857v-0.9668q0-6.8213-4.5117-10.527-4.458-3.7598-12.568-3.7598-5.1562 0-10.044 1.2354-4.8877 1.2354-9.3994 3.7061v-9.1309q5.4248-2.0947 10.527-3.1152 5.1025-1.0742 9.9365-1.0742 13.052 0 19.497 6.7676 6.4453 6.7676 6.4453 20.518z"/>
<path d="m940.24 99.082q-1.665-0.9668-3.6523-1.3965-1.9336-0.4834-4.2969-0.4834-8.3789 0-12.891 5.4785-4.458 5.4248-4.458 15.63v31.689h-9.9365v-60.156h9.9365v9.3457q3.1152-5.4785 8.1104-8.1104 4.9951-2.6855 12.139-2.6855 1.0205 0 2.2559 0.16113 1.2354 0.10742 2.7393 0.37598z"/>
</g>
<g transform="scale(.1)">
<path d="m460.3 109.22q0-10.742-4.458-16.65-4.4043-5.9082-12.407-5.9082-7.9492 0-12.407 5.9082-4.4043 5.9082-4.4043 16.65 0 10.688 4.4043 16.597 4.458 5.9082 12.407 5.9082 8.0029 0 12.407-5.9082 4.458-5.9082 4.458-16.597zm9.8828 23.311q0 15.361-6.8213 22.827-6.8213 7.5195-20.894 7.5195-5.21 0-9.8291-0.80566-4.6191-0.75196-8.9697-2.3633v-9.6142q4.3506 2.3633 8.5938 3.4912 4.2432 1.1279 8.6475 1.1279 9.7217 0 14.556-5.1025 4.834-5.0488 4.834-15.308v-4.8877q-3.0615 5.3174-7.8418 7.9492-4.7803 2.6318-11.44 2.6318-11.064 0-17.832-8.4326-6.7676-8.4326-6.7676-22.344 0-13.965 6.7676-22.397 6.7676-8.4326 17.832-8.4326 6.6602 0 11.44 2.6318 4.7803 2.6318 7.8418 7.9492v-9.1309h9.8828z"/>
<path d="m524.7 89.082q-1.665-0.9668-3.6524-1.3965-1.9336-0.4834-4.2969-0.4834-8.3789 0-12.891 5.4785-4.458 5.4248-4.458 15.63v31.689h-9.9365v-60.156h9.9365v9.3457q3.1152-5.4785 8.1104-8.1104 4.9951-2.6855 12.139-2.6855 1.0205 0 2.2559 0.16113 1.2354 0.10742 2.7393 0.37598z"/>
<path d="m583.56 107.45v4.834h-45.439q0.64453 10.205 6.123 15.576 5.5322 5.3174 15.361 5.3174 5.6934 0 11.011-1.3965 5.3711-1.3965 10.635-4.1895v9.3457q-5.3174 2.2559-10.903 3.4375t-11.333 1.1816q-14.395 0-22.827-8.3789-8.3789-8.3789-8.3789-22.666 0-14.771 7.9492-23.418 8.0029-8.7012 21.538-8.7012 12.139 0 19.175 7.8418 7.0898 7.7881 7.0898 21.216zm-9.8828-2.9004q-0.10742-8.1104-4.5654-12.944-4.4043-4.834-11.709-4.834-8.2715 0-13.267 4.6729-4.9414 4.6729-5.6934 13.159z"/>
<path d="m650.54 107.45v4.834h-45.439q0.64453 10.205 6.123 15.576 5.5322 5.3174 15.361 5.3174 5.6934 0 11.011-1.3965 5.3711-1.3965 10.635-4.1895v9.3457q-5.3174 2.2559-10.903 3.4375t-11.333 1.1816q-14.395 0-22.827-8.3789-8.3789-8.3789-8.3789-22.666 0-14.771 7.9492-23.418 8.0029-8.7012 21.538-8.7012 12.139 0 19.175 7.8418 7.0898 7.7881 7.0898 21.216zm-9.8828-2.9004q-0.10742-8.1104-4.5654-12.944-4.4043-4.834-11.709-4.834-8.2715 0-13.267 4.6729-4.9414 4.6729-5.6934 13.159z"/>
<path d="m716.06 103.69v36.309h-9.8828v-35.986q0-8.54-3.3301-12.783t-9.9902-4.2432q-8.0029 0-12.622 5.1025t-4.6191 13.911v33.999h-9.9365v-60.156h9.9365v9.3457q3.5449-5.4248 8.3252-8.1104 4.834-2.6855 11.118-2.6855 10.366 0 15.684 6.4453 5.3174 6.3916 5.3174 18.853z"/>
<path d="m812.68 109.98q0-10.903-4.5117-17.08-4.458-6.2305-12.3-6.2305-7.8418 0-12.354 6.2305-4.458 6.1768-4.458 17.08 0 10.903 4.458 17.134 4.5117 6.1768 12.354 6.1768 7.8418 0 12.3-6.1768 4.5117-6.2305 4.5117-17.134zm-33.623-21.001q3.1152-5.3711 7.8418-7.9492 4.7803-2.6318 11.387-2.6318 10.957 0 17.778 8.7012 6.875 8.7012 6.875 22.881 0 14.18-6.875 22.881-6.8213 8.7012-17.778 8.7012-6.6064 0-11.387-2.5781-4.7266-2.6318-7.8418-8.0029v9.0234h-9.9365v-83.574h9.9365z"/>
<path d="m865.96 109.76q-11.978 0-16.597 2.7393-4.6192 2.7393-4.6192 9.3457 0 5.2637 3.4375 8.3789 3.4912 3.0615 9.4531 3.0615 8.2178 0 13.159-5.8008 4.9951-5.8545 4.9951-15.522v-2.2022zm19.712-4.082v34.321h-9.8828v-9.1309q-3.3838 5.4785-8.4326 8.1104-5.0488 2.5781-12.354 2.5781-9.2383 0-14.717-5.1562-5.4248-5.21-5.4248-13.911 0-10.151 6.7676-15.308 6.8213-5.1562 20.303-5.1562h13.857v-0.9668q0-6.8213-4.5117-10.527-4.458-3.7598-12.568-3.7598-5.1562 0-10.044 1.2354-4.8877 1.2354-9.3994 3.7061v-9.1309q5.4248-2.0947 10.527-3.1152 5.1025-1.0742 9.9365-1.0742 13.052 0 19.497 6.7676 6.4453 6.7676 6.4453 20.518z"/>
<path d="m940.24 89.082q-1.665-0.9668-3.6523-1.3965-1.9336-0.4834-4.2969-0.4834-8.3789 0-12.891 5.4785-4.458 5.4248-4.458 15.63v31.689h-9.9365v-60.156h9.9365v9.3457q3.1152-5.4785 8.1104-8.1104 4.9951-2.6855 12.139-2.6855 1.0205 0 2.2559 0.16113 1.2354 0.10742 2.7393 0.37598z"/>
</g>
</g>
</svg>
