<svg xmlns="http://www.w3.org/2000/svg" viewBox="0 0 500 500">
  <path d="M2.005 67.6v-3.557c0-11.336 2.751-21.249 8.253-31.114 5.55-9.866 12.996-17.028 22.72-22.672 7.588-4.553 15.224-6.83 23.477-7.968v-.285h386.697v.285c8.3 1.138 15.889 3.415 23.525 7.968 9.723 5.644 16.98 12.948 22.672 22.672s8.252 19.778 8.252 31.114V67.6h0v364.357h0v3.747c0 11.146-2.75 21.059-8.252 30.924-5.502 9.913-12.949 17.028-22.672 22.672-7.636 4.553-15.225 6.83-23.525 7.968v.332H56.455v-.332c-8.253-1.138-15.889-3.415-23.478-7.968-9.723-5.644-17.027-12.948-22.719-22.672-5.644-9.723-8.253-19.778-8.253-30.924v-3.747h0V67.6z" fill="#fff" fill-rule="evenodd" stroke="#000" stroke-width="4.41725076" stroke-linecap="round" stroke-linejoin="round"/>
  <g fill-rule="evenodd" stroke-width="28.222" stroke-linejoin="round">
    <path d="M297.344 470.952l3.083-9.39 3.083-14.751 2.087-15.841.806-15.083-.806-14.418-1.755-13.944-3.415-14.418-4.221-13.944-3.7-9.06-4.553-10.67-12.141-24.806-11.668-28.362-4.885-15.557-3.7-15.367-2.466-15.888-.284-15.557.806-7.92.949-7.447 2.418-7.968 2.609-7.257 3.747-7.446 4.174-7.162 5.36-7.256 6.307-6.498 7.304-6.64 8.253-6.166 19.635-11.667 21.533-9.391 19.92-5.028 9.58-1.138 8.585-.332 8.727.332 7.968 1.47 7.92 1.945 7.115 2.75 7.114 2.894 6.972 4.221 12.332 9.391 11.478 11.051 10.054 12.474 9.107 13.896 8.727 14.419 7.114 14.75 12.995 29.5 4.506 11.668v178.19c0 11.335-2.75 20.774-8.395 31.113-5.691 10.387-12.806 17.027-22.528 22.529-7.636 4.221-15.225 6.782-23.525 7.92v.522H290.23l7.114-24.663z"/>
    <path fill="none" d="M252.761 124.58h243.452v371.083H252.761z"/>
    <path d="M496.671 430.58h-.332c.332 1.47.332 2.609.332 4.031 0 11.383-2.75 20.774-8.252 30.971-5.502 10.198-12.948 17.027-22.671 22.671-7.968 4.222-15.225 6.83-23.477 7.92v.333h-94.147v-4.838l.475-6.023v-5.976l-.475-6.166v-5.976l-.332-5.976v-6.166l-.332-6.023-.806-5.976-.332-6.166-.806-5.976-.617-5.691-.806-5.644-1.138-6.024-1.139-5.312-.806-2.609-.664-2.75-.806-2.609-.806-2.561-.664-2.798-.807-2.562-.664-2.608-1.28-2.277-.332-.806-.332-1.138v-1.139l-.475-.616-.332-2.277v-3.889l.332-2.087.475-1.944.332-2.277.664-1.945.948-1.944.996-2.277 1.139-1.802 1.612-2.23 1.47-1.944 1.423-2.276 1.66-1.945 1.755-1.802 1.945-2.277 1.944-1.944 2.135-1.945 2.419-1.755 2.086-1.944 2.42-1.803 2.608-1.944 2.276-1.945 2.609-1.423 2.561-1.944 2.751-1.47 3.083-1.945 2.608-1.47 2.894-1.47 2.75-1.613 2.941-1.139 3.083-1.47 3.083-1.09 3.083-1.471 2.893-1.138 2.608-1.139 3.558-.806 2.893-1.138 2.608-.806 3.083-.664 2.893-.807 3.083-.806 2.751-.332 2.94-.332 3.083-.474 2.562-.332h7.968l2.56.332h2.467l2.561.474 2.277.664 2.276.332 1.945.949 1.802.996 2.23.806 1.47 1.138 1.944 1.47 1.47 1.139 1.613 1.944.806.807.332.616 2.609 3.557 2.561 3.605 2.609 3.367 3.083 3.89 3.082 3.746 3.083 3.89 3.226 4.031 3.082 3.89 3.368 3.746 3.415 4.221 1.944 1.755v66.59z" fill="#fff"/>
    <path fill="none" d="M333.01 312.023h162.918V496H333.01z"/>
    <path d="M351.034 268.147l1.233 2.277 1.186 2.845.521 2.609.854 2.087.664 2.56.711 2.657.095 2.419.38 2.656-.048 2.466.237 2.324-.19 2.514-.331 2.229-.095 1.992-.617 2.324-.806 1.897-.617 1.992-.332.854-.474 1.043-.901 1.613-1.09 1.66-1.376 1.423-1.091 1.138-1.328 1.09-1.518.95-1.66 1.043-1.375.522-1.945.426-1.802.76-1.613-.19h-1.755l-1.944-.095-1.613-.048-2.419-.759-1.897-.806-1.897-.474-2.087-1.233-1.612-.949-2.087-1.233-1.755-1.375-1.85-1.566-1.944-1.802-2.04-1.992-1.423-1.85-1.707-2.087-1.613-1.802-1.328-2.466-1.28-2.277-1.423-2.229-1.328-2.419-1.091-2.703-1.044-2.561-.948-2.372-.522-2.229-.522-2.608-.664-2.514-.142-2.42-.711-2.655-.095-2.419.19-2.514-.095-2.419.332-2.229.38-2.087.331-2.229.806-1.897.949-1.944.332-.996.427-1.091.948-1.565 1.044-1.66 1.138-1.186 1.47-1.47 1.234-.854 1.185-.996 1.66-1.044 1.803-.711 1.66-.664 1.47-.237 1.992-.285 1.613.048 2.276.474h1.755l.901.474.996.332 2.182.332 1.992.949 1.897.806 1.707 1.233 1.755 1.376 2.087 1.233 1.897 1.66 1.897 1.707 1.613 1.803 2.04 1.944 1.422 1.897 1.47 2.372 1.566 2.134 1.28 2.277 1.423 2.229 1.044 2.56z" fill="#fff"/>
    <path fill="none" d="M296.965 240.259h59.95v78.305h-59.95z"/>
    <path d="M376.55 259.705l1.186 2.845 1.565 3.036 1.613 2.656 1.565 2.182 1.944 2.513 1.708 2.135 2.23 2.418 1.991 1.992 1.186 1.091 1.186.76 1.185 1.28 1.328.664 1.044.806 1.28 1.09.901.475 1.186.759 2.466.949 2.42 1.138 2.466.948 2.845.949 1.328.332 1.186-.142 1.375.332 1.281.19 1.233.047 1.186-.142 1.186-.095 1.185-.143 1.328.332 1.091-.379 1.138-.142 1.091-.427 1.139-.095 1.375-.57 1.043-.379 1.044-.426 1.518-.617 1.043-.427.806-.664 1.186-.474.949-.712.759-.664.9-.853 1.044-.807.949-.711.616-1.09.854-.902 1.09-.759.617-1.09.807-1.044.711-1.138.901-1.234.996-2.324 1.376-2.656 1.09-2.513.475-2.656.522-2.609.332-1.375.332-1.328.19-1.66-.143-1.186v-1.708l.38-1.233-.095-3.272-.38-3.13.048-2.846-.854-2.94-.854-2.989-.616-2.893-.854-2.94-1.28-3.178-1.186-2.846-1.518-2.514-1.613-3.035-1.612-2.324-1.85-2.372-1.945-2.56-1.85-2.04-2.181-1.945-1.233-1.28-1.28-1.044-1.187-.759-1.043-.806-1.28-1.043-1.044-.427-1.186-1.139-1.043-.426-2.514-1.47-2.466-.902-2.419-.806-2.656-.522-1.375-.332-1.281-.19-1.375-.284-1.328-.332-1.186.095-1.376-.332-1.138.142-1.186.095-1.185.142-1.044.38h-1.233l-1.09.426-1.14.095-1.374.522-1.044.427-1.043.427-1.376.521-1.09.807-1.044.427-.901.332-.854.9-1.375.902-.427.664-1.376.901-.948.711-.854.902-.38.806-.948.711-.901 1.233-.712 1.186-.616 1.091-.806 1.043-1.376 2.656-1.09 2.514-.807 2.23-.806 2.75-.19 1.328-.427 1.518-.19 1.328-.379 1.186v1.755l-.285 1.328.238 1.47-.332 1.375.094 3.273.095 3.272.38 2.609.664 2.893.38 3.178 1.185 2.846.759 2.798 1.28 3.178z" fill="#fff"/>
    <path fill="none" d="M371.665 198.427h77.783v92.77h-77.783z"/>
    <path d="M394.43 258.756l.712 1.802.57 1.376.71 1.802.855 1.233 1.043 1.328 1.091 1.47.854 1.234.9 1.375 1.281 1.044.712.948 1.375 1.233 1.091.57 1.186.758 1.043.854 1.233.901 1.281.19 1.328.332.996.284 1.233.427.996-.095.759.095.285-.142.758-.285.475.332.474-.19.57-.236 1.232-.475.901-.332 1.044-.427 1.043-.948.475-.522.948-.711.712-1.186.758-1.138.522-.901.759-1.186.19-1.28.616-1.471.332-1.376.19-1.28.19-1.802-.095-1.044.19-1.802-.143-2.04-.095-1.517-.237-1.47-.284-1.613-.237-1.47-.712-1.803-.095-1.565-.664-1.66-.711-1.802-.522-1.328-1.186-1.66-.521-1.328-.996-1.186-.901-1.375-.854-1.233-.996-1.186-.901-1.376-1.28-1.09-1.281-1.044-1.091-.948-1.186-.76-1.09-.616-.902-.522-1.66-.569-.901-.522-1.328-.332-1.328-.19h-.854l-.759.285-.474-.332-.285.143h-.9l-1.044.38-1.044.426-1.09.427-.902.711-1.043.427-.617.759-.758.617-.76 1.185-.474 1.044-.806 1.043-.616 1.47-.475 1.044-.474 1.423-.332 1.328-.19 1.28-.38 1.708-.047 1.612.285 1.613-.19 1.66.237 1.47.285 1.613.095 1.565.427 1.897.521 1.375.427 1.898.522 1.375z"/>
    <path fill="none" d="M391.822 227.263h36.473v50.702h-36.473z"/>
    <path d="M339.983 280.905l.569 1.376.616 1.47.57 1.375.379.902.474 1.565.095 1.138.57 1.375v1.186l.284 1.66.142 1.138-.095 1.091.237 1.328.095 1.139-.19.806-.19 1.28-.568 1.091v.854l-.38.854-.569.759-.142.426-.332.475-.332.095.142.284-.759.332-.095.57-.474.142-.284.142-.332.095-.143.427-.474.19-.285.142-.332.094-.426.19-.427-.19-.285.143-.474.142-.285.142-.664-.284-.284.142-1.186.095-.711-.048-1.091-.474-1.044-.427-.853-.38-.76-.568-.853-.38-1.186-.711-.616-.664-1.044-.806-.853-.854-1.328-1.044-.807-1.09-.664-.807-.9-1.375-.902-.854-.57-1.328-.853-1.233-.474-1.233-.854-1.233-.569-1.328-.617-1.518-.379-.854-.617-1.517.048-1.234-.57-1.328-.142-1.185-.332-1.613.048-1.233-.095-.996.047-1.233-.19-1.328.475-.901-.095-1.139.427-1.09.522-.854v-.901l.427-1.044.284-.095.19-.426.332-.475.284-.142.332-.095.095-.57.475-.189.426-.19.19-.379.285-.142.759-.285.332-.142.711-.285.332-.142.427.19.284-.095.475-.19.427-.19.474.332.759.095h.853l.902.475.948.19 1.138.569 1.044.474.854.332.806 1.09.996.333.759.9 1.185.76.76 1.09.9 1.234.854.853.854 1.234.759.948.996 1.138.427 1.044.9 1.375z"/>
    <path fill="none" d="M314.371 266.44h29.643v40.74h-29.643z"/>
    <path d="M336.236 308.035l.19-1.329.616-1.47.806-.996.902-2.134.664-1.47.806-1.898.901-1.612 1.423-1.755.806-1.897 1.376-1.802 1.043-2.182 1.375-1.755 1.708-1.897 1.66-1.897 1.707-1.897 2.135-1.613 1.944-1.66 2.135-1.707 2.56-1.376 1.329-1.09.9-.333 1.376-.9 1.376-.57 1.47-.617 1.375-.521 1.66-.664 1.613-.285 1.375-.57 1.945-.284 1.802-.711 1.47-.237 2.04-.142 1.85-.19 1.944-.427h2.087l1.945.095h1.755l2.276-.048 2.04-.142 2.276.522 2.467.047 1.944.095 2.798.427 2.42.427 2.37.616 1.566.048 2.229.332 1.802.142 1.66.19 2.04-.095 1.66.19 1.755-.38 1.802.19 1.897-.095 2.561-.142 1.945.095 2.371-.237 1.518-.095 1.186-.143 1.328-.19 1.612.19 1.47-.237 1.376.332 1.47-.237 1.803.142 2.086.048 1.139.237 1.85.142 1.565.048 1.233.047 1.47.617 1.28.19 1.376.331 1.043.427 1.423.475.949.664.996.284 1.186.759 1.043.474.664.76 1.09.948.665.427.711.948.617.617.901.9.38 1.044.758.901.237.617.427 1.043.475 1.234.332.9.426 1.044v.854l.427 1.09-.047 1.234.142 1.138.095 1.186.142 1.186-.142.948-.19 1.28-.047 1.234-.474 2.656-.332 2.229-.996 2.324-1.091 2.514-.949 2.846-1.47 2.513-1.47 2.324-1.47 2.514-1.803 2.466-2.324 2.514-1.85 2.324-2.229 2.656-2.75 2.324-2.277 2.134-1.328 1.044-.664.996-1.328 1.043-1.091 1.138-1.233 1.376-1.091 1.138-1.708 2.798-2.276 2.467-1.992 3.415-2.04 2.75-2.419 3.083-1.185 1.376-.996 1.423-1.518 1.47-1.375 1.423-1.328 1.423-1.566 1.328-1.517 1.47-1.565 1.328-1.755 1.233-1.518 1.518-1.945 1.138-2.134.854-1.897 1.28-2.561 1.044-1.945.759-2.56 1.043-2.135.854-1.945.284-1.802.332-1.897.427-1.85.237-1.944.427-1.613-.19h-1.755l-1.66-.237-1.66-.19h-1.755l-1.328-.331-1.612-.048-1.328-.332-2.846-.948-3.368-1.091-2.656-.854-5.454-2.371-2.75-.807-3.131-.806-2.988-.901-1.565-.047-1.376-.332-2.988-.522-2.371-.664-2.514-.19-2.182-.711-2.371-.617-2.324-.616-1.945-.949-2.039-.759-1.47-.996-2.087-.901-1.28-1.043-1.613-.949-1.186-1.233-1.328-1.044-1.328-1.233-1.138-1.09-.996-1.186-.617-1.518-.806-1.233-.57-1.328-.616-1.518-.237-1.47-.38-1.044-.094-1.565.142-1.28-.237-1.47.284-1.518.617-1.47.427-1.186.616-1.47.57-1.66.806-.997.616-1.517.949-1.566.759-1.185.759-1.186.806-.996.759-1.186.474-.9.759-1.187.332-.996.617-.616.758-1.186.475-.901.142-.57.949-.71.142-.427.474-1.044.759-1.186.427-1.043.948-.711.38-.854.095-.57.332-.521.284-.617.285-.094z" fill="#ffd320"/>
    <path fill="none" d="M319.636 268.052h151.44v106.715h-151.44z"/>
    <path d="M453.195 291.434l-.616.238-.76.332-.284.094-.616.617-.76.285-.616.616-1.186.996-1.138 1.138-1.375 1.803-1.186 1.375-1.233 1.708-12.948 16.6-3.842 4.837-3.842 4.364-4.031 4.41-4.364 4.412-2.466 2.039-2.419 1.85-2.56 1.897-2.23 1.802-2.466 1.708-2.704 1.565-2.703 1.47-2.893 1.138-2.704 1.091-3.035.712-2.799.806-2.656.38-3.13.379-2.846.284-2.703.238-2.466-.095-2.514-.19-2.893-.237-2.23-.332-2.608-.474-4.743-.902-4.41-1.043-4.27-1.565-3.888-1.423-6.593-2.182-1.28-.569-.617-.237-.427-.19-.854-.38-.616-.236-.617-.285-.711-.047-.427-.19-.474.19-.285.094-.522-1.328-.569-1.375.332-.142.427-.143.332-.142.095.285.284-.095.475-.19-.048.38.475-.19.426-.19.427.19.475.332.426.19.57.094 1.375.332 2.324 1.139 6.782 2.513 3.652 1.328 4.174 1.281 4.079 1.138 4.885.807 2.04.427 2.845.569 2.23-.19 2.655.142 2.372.285 2.371-.095 2.704-.237 2.798-.427 2.514-.664 2.608-.522 2.988-.854 2.846-1.138 2.372-.996 2.75-1.423 2.23-1.423 2.75-1.47 2.467-1.707 2.229-1.755 2.419-1.85 2.134-2.087 4.41-4.268 4.032-4.411 3.795-4.506 3.7-4.268 12.757-17.075 1.281-1.565 1.518-1.47 1.375-1.803 1.518-1.47.569-.237.664-.617.474-.521.57-.76 1.043-.426.759-.285.19-.426 1.043-.427.522 1.328.616 1.517z" fill="#e68c3f"/>
    <path fill="none" d="M330.07 288.541h123.173v64.124H330.07z"/>
  </g>
</svg>
