<svg version="1.1" viewBox="0 0 210 297" xmlns="http://www.w3.org/2000/svg">
<g transform="rotate(-45 1.9513 -4.7108)" fill-opacity=".25" stroke-width=".26458" aria-label="DRAFT">
<path d="m-108.4 197.31v-36.116h11.137q7.2926 0 11.881 4.7625 4.6137 4.7625 4.6137 12.502v1.6123q0 7.7391-4.6137 12.502-4.5889 4.7377-11.981 4.7377zm11.137-30.088h-3.6711v24.085h3.5719q4.44 0 6.7221-2.9022 2.3068-2.927 2.3068-8.3344v-1.6619q0-11.187-8.9297-11.187z"/>
<path d="m-55.217 197.31-6.7469-13.246h-5.9283v13.246h-7.4662v-36.116h13.444q6.226 0 9.773 2.8029 3.5719 2.7781 3.5719 8.1111 0 3.9191-1.7363 6.3252t-4.7129 3.7455l7.8135 14.784v0.34727zm-12.675-30.088v10.84h5.9779q2.927 0 4.3904-1.4635 1.4883-1.4883 1.4883-3.9191 0-2.5053-1.4387-3.9688-1.4387-1.4883-4.44-1.4883z"/>
<path d="m-45.94 197.31 13.444-36.116h6.8957l13.519 36.116h-7.9375l-2.4805-7.4414h-13.072l-2.4805 7.4414zm12.378-13.469h9.0537l-4.5145-13.568z"/>
<path d="m-8.683 197.31v-36.116h23.54v6.0275h-16.073v9.3266h14.287v6.0027h-14.287v14.759z"/>
<path d="m17.486 167.22v-6.0275h29.394v6.0275h-11.038v30.088h-7.4414v-30.088z"/>
</g>
</svg>
