<svg xmlns="http://www.w3.org/2000/svg" version="1.1" xmlns:xlink="http://www.w3.org/1999/xlink" viewBox="0 0 900 371">
<g transform="translate(0,-681.36218)">
<g>
<g fill="#ea482f">
<path d="m398.43823 888.94055 6.25196 1.5791c-1.3106 5.13478-3.67387 9.05567-7.08985 11.7627-3.39456 2.68555-7.55179 4.02832-12.47168 4.02832-5.09182 0-9.2383-1.03125-12.43945-3.09375-3.1797-2.08398-5.60743-5.09179-7.2832-9.02344-1.65431-3.93162-2.48145-8.1533-2.48145-12.66504 0-4.91989 0.93457-9.20602 2.80371-12.8584 1.89062-3.67378 4.56542-6.45601 8.02442-8.34668 3.48045-1.91206 7.30466-2.86811 11.47265-2.86816 4.72653 0.00005 8.70114 1.20317 11.92383 3.60938 3.22262 2.40629 5.46773 5.79007 6.73535 10.15136l-6.15527 1.4502c-1.09574-3.43747-2.68558-5.94039-4.76953-7.50879-2.08402-1.56832-4.70511-2.3525-7.86328-2.35254-3.63089 0.00004-6.67092 0.87016-9.12012 2.61035-2.42775 1.74027-4.13576 4.08207-5.12403 7.02539-0.98829 2.92191-1.48243 5.94046-1.48242 9.05567-0.00001 4.01759 0.58007 7.53029 1.74024 10.53808 1.18163 2.98634 3.0078 5.22071 5.47851 6.70313 2.47069 1.48242 5.14549 2.22363 8.02442 2.22363 3.50192 0 6.46676-1.00976 8.89453-3.0293 2.4277-2.01952 4.07125-5.01659 4.93066-8.99121"/>
<path d="m410.52319 882.49524c0-7.84177 2.10547-13.97555 6.31641-18.40137 4.21092-4.44722 9.64646-6.67085 16.30664-6.6709 4.3613 0.00005 8.29293 1.04204 11.79492 3.12598 3.50191 2.08403 6.16597 4.99516 7.99219 8.7334 1.84761 3.71683 2.77144 7.9385 2.77148 12.66504-0.00004 4.79103-0.96684 9.07716-2.90039 12.8584-1.93363 3.78125-4.67289 6.64941-8.21777 8.60449-3.54496 1.93359-7.36917 2.90039-11.47266 2.90039-4.44728 0-8.42189-1.07422-11.92382-3.22266-3.50197-2.14843-6.15529-5.08104-7.95997-8.79785-1.80469-3.71678-2.70703-7.64842-2.70703-11.79492m6.44532 0.0967c-0.00001 5.69338 1.52538 10.18361 4.57617 13.4707 3.07225 3.26563 6.91795 4.89844 11.53711 4.89844 4.70504 0 8.57223-1.65429 11.60156-4.96289 3.05074-3.30858 4.57613-8.00291 4.57617-14.08301-0.00004-3.84567-0.65531-7.19723-1.96582-10.05469-1.2891-2.87887-3.19047-5.1025-5.7041-6.67089-2.49222-1.58981-5.29593-2.38473-8.41113-2.38477-4.42581 0.00004-8.23928 1.52543-11.44043 4.57617-3.1797 3.02933-4.76954 8.09964-4.76953 15.21094"/>
<path d="m463.53589 905.505v-47.24414h9.41015l11.18262 33.45118c1.03123 3.11524 1.78318 5.44629 2.25586 6.99316 0.53708-1.71874 1.37497-4.24315 2.51367-7.57324l11.31153-32.8711h8.41113v47.24414h-6.02637v-39.54199l-13.72851 39.54199h-5.63965l-13.66406-40.21875v40.21875h-6.02637"/>
<path d="m518.77222 905.505v-47.24414h17.82129c3.13669 0.00005 5.53219 0.15044 7.18652 0.45118 2.32028 0.38676 4.26461 1.12797 5.83301 2.22363 1.56832 1.07426 2.82515 2.58891 3.7705 4.54394 0.96676 1.95512 1.45016 4.10356 1.4502 6.44532-0.00004 4.0176-1.27836 7.42287-3.83496 10.21582-2.55668 2.7715-7.17581 4.15724-13.85742 4.15722h-12.11719v19.20703h-6.25195m6.25195-24.78222h12.21387c4.03903 0.00002 6.90719-0.75193 8.60449-2.25586 1.69723-1.50388 2.54586-3.62009 2.5459-6.34863-0.00004-1.97653-0.50492-3.66305-1.51465-5.05957-0.98831-1.41793-2.29886-2.3525-3.93164-2.80372-1.05276-0.27925-2.9971-0.4189-5.83301-0.41894h-12.08496v16.88672"/>
<path d="m552.77124 905.505 18.14355-47.24414h6.73536l19.33593 47.24414h-7.12207l-5.51074-14.30859h-19.75488l-5.18848 14.30859h-6.63867m13.63184-19.40039h16.0166l-4.93067-13.08398c-1.50393-3.97457-2.62111-7.24019-3.35156-9.79688-0.60158 3.02934-1.45021 6.03715-2.5459 9.02344l-5.18847 13.85742"/>
<path d="m601.9812 905.505v-47.24414h6.41309l24.81445 37.09278v-37.09278h5.99414v47.24414h-6.41309l-24.81445-37.125v37.125h-5.99414"/>
<path d="m663.05054 905.505v-20.01269l-18.20801-27.23145h7.60547l9.31347 14.24414c1.71874 2.6641 3.31932 5.32816 4.80176 7.99219 1.41795-2.47067 3.1367-5.2529 5.15625-8.34668l9.15235-13.88965h7.2832l-18.85254 27.23145v20.01269h-6.25195"/>
</g>
<g>
<path d="m712.06714 905.505v-47.24414h6.41308l24.81446 37.09278v-37.09278h5.99414v47.24414h-6.41309l-24.81445-37.125v37.125h-5.99414"/>
<path d="m754.63843 905.505 18.14355-47.24414h6.73535l19.33594 47.24414h-7.12207l-5.51074-14.30859h-19.75488l-5.18848 14.30859h-6.63867m13.63183-19.40039h16.01661l-4.93067-13.08398c-1.50393-3.97457-2.62111-7.24019-3.35156-9.79688-0.60158 3.02934-1.45022 6.03715-2.5459 9.02344l-5.18848 13.85742"/>
<path d="m803.71948 905.505v-47.24414h9.41016l11.18262 33.45118c1.03122 3.11524 1.78317 5.44629 2.25586 6.99316 0.53708-1.71874 1.37497-4.24315 2.51367-7.57324l11.31152-32.8711h8.41113v47.24414h-6.02636v-39.54199l-13.72852 39.54199h-5.63965l-13.66406-40.21875v40.21875h-6.02637"/>
<path d="m859.08472 905.505v-47.24414h34.16015v5.5752h-27.9082v14.46973h26.13574v5.54296h-26.13574v16.08106h29.00391v5.57519h-35.25586"/>
</g>
</g>
<g>
<path d="m528.44257 846.06836 2.03662 0.5144c-0.42694 1.6727-1.19679 2.94996-2.30957 3.83179-1.10581 0.87484-2.46006 1.31226-4.06275 1.31226-1.6587 0-3.00944-0.33594-4.05224-1.00782-1.03581-0.67887-1.82667-1.65868-2.37256-2.93945-0.5389-1.28076-0.80835-2.656-0.80835-4.12573 0-1.60269 0.30444-2.99893 0.91333-4.18872 0.61588-1.19677 1.48722-2.1031 2.61401-2.719 1.13379-0.62287 2.37955-0.93431 3.73731-0.93432 1.5397 0.00001 2.83446 0.39194 3.88427 1.17578 1.0498 0.78387 1.78116 1.88616 2.1941 3.30688l-2.00513 0.47242c-0.35695-1.11978-0.87485-1.93513-1.55371-2.44605-0.67889-0.51089-1.53273-0.76634-2.56153-0.76636-1.18278 0.00002-2.1731 0.28346-2.97094 0.85035-0.79086 0.5669-1.34726 1.32976-1.66919 2.28857-0.32195 0.95183-0.48292 1.93515-0.48291 2.94995-0.00001 1.30876 0.18896 2.45305 0.56689 3.43286 0.38493 0.97282 0.97982 1.70069 1.78467 2.1836 0.80484 0.48291 1.67618 0.72436 2.61401 0.72436 1.14078 0 2.1066-0.32894 2.89746-0.98682 0.79085-0.65787 1.32625-1.63419 1.60621-2.92895"/>
<path d="m532.37933 843.96875c0-2.55451 0.68587-4.55264 2.05762-5.99438 1.37174-1.44872 3.14241-2.17308 5.31201-2.1731 1.42073 0.00002 2.70149 0.33945 3.84229 1.01831 1.14077 0.67889 2.00861 1.62721 2.60351 2.84497 0.60188 1.21079 0.90282 2.58603 0.90284 4.12573-0.00002 1.56072-0.31496 2.95696-0.94483 4.18872-0.6299 1.23178-1.52223 2.1661-2.677 2.80298-1.1548 0.62989-2.40056 0.94483-3.73731 0.94483-1.44873 0-2.74349-0.34994-3.88427-1.04981-1.14079-0.69987-2.00513-1.65519-2.59302-2.86596s-0.88184-2.49154-0.88184-3.84229m2.09961 0.0315c0 1.85466 0.49691 3.31739 1.49073 4.38819 1.0008 1.0638 2.25357 1.5957 3.7583 1.5957 1.5327 0 2.79247-0.5389 3.77929-1.6167 0.99381-1.07779 1.49071-2.60701 1.49073-4.58764-0.00002-1.25276-0.21348-2.34456-0.64039-3.2754-0.41993-0.93781-1.03931-1.66217-1.85815-2.17309-0.81186-0.51789-1.72519-0.77684-2.73999-0.77686-1.44174 0.00002-2.68401 0.49692-3.72681 1.49073-1.03581 0.98682-1.55371 2.63851-1.55371 4.95507"/>
<path d="m549.64862 851.46436v-15.39014h3.06543l3.64282 10.89697c0.33593 1.01482 0.58089 1.77417 0.73487 2.27808 0.17495-0.5599 0.4479-1.38224 0.81884-2.46704l3.68482-10.70801h2.73999v15.39014h-1.96314v-12.88111l-4.47216 12.88111h-1.83716l-4.45117-13.10157v13.10157h-1.96314"/>
<path d="m567.64227 851.46436v-15.39014h5.80542c1.0218 0.00001 1.80216 0.049 2.34107 0.14697 0.75585 0.12599 1.38923 0.36745 1.90014 0.72437 0.5109 0.34995 0.92032 0.84335 1.22828 1.48022 0.31492 0.6369 0.47239 1.33676 0.47241 2.09961-0.00002 1.30877-0.41644 2.41806-1.24927 3.32788-0.83286 0.90284-2.33758 1.35426-4.51416 1.35425h-3.94727v6.25684h-2.03662m2.03662-8.073h3.97876c1.31575 0.00001 2.25008-0.24495 2.80298-0.73487 0.55289-0.4899 0.82934-1.17927 0.82935-2.06811-0.00001-0.64387-0.16448-1.19327-0.49341-1.64819-0.32195-0.46191-0.74887-0.76635-1.28076-0.91333-0.34295-0.091-0.97633-0.13647-1.90015-0.13648h-3.93677v5.50098"/>
<path d="m578.71771 851.46436 5.9104-15.39014h2.19409l6.29883 15.39014h-2.32007l-1.79516-4.66114h-6.4353l-1.69019 4.66114h-2.1626m4.44068-6.31983h5.21753l-1.60621-4.26221c-0.48991-1.29474-0.85384-2.35854-1.09179-3.1914-0.19597 0.98683-0.47242 1.96664-0.82935 2.93945l-1.69018 4.51416"/>
<path d="m594.74823 851.46436v-15.39014h2.08911l8.0835 12.08325v-12.08325h1.95263v15.39014h-2.08911l-8.08349-12.09375v12.09375h-1.95264"/>
<path d="m614.64203 851.46436v-6.51929l-5.9314-8.87085h2.47754l3.03394 4.64014c0.55989 0.86784 1.08129 1.73568 1.56421 2.60351 0.4619-0.80484 1.0218-1.71117 1.67968-2.71899l2.98145-4.52466h2.37256l-6.14136 8.87085v6.51929h-2.03662"/>
<path d="m629.55975 846.51978 1.92115-0.16797c0.091 0.76986 0.30094 1.40324 0.62988 1.90014 0.33593 0.48991 0.85384 0.88884 1.55371 1.19678 0.69986 0.30095 1.48722 0.45142 2.36206 0.45142 0.77685 0 1.46272-0.11548 2.05762-0.34644 0.59488-0.23095 1.03579-0.5459 1.32275-0.94482 0.29394-0.40592 0.44091-0.84684 0.44092-1.32276-0.00001-0.4829-0.13999-0.90282-0.41992-1.25976-0.27996-0.36393-0.74187-0.66837-1.38574-0.91333-0.41294-0.16097-1.32627-0.40942-2.73999-0.74536-1.41375-0.34293-2.40406-0.66487-2.97095-0.96582-0.73487-0.38492-1.28427-0.86084-1.6482-1.42774-0.35693-0.57388-0.5354-1.21426-0.5354-1.92114 0-0.77684 0.22046-1.50121 0.66138-2.1731 0.44092-0.67886 1.0848-1.19326 1.93164-1.54321 0.84684-0.34992 1.78816-0.52489 2.82398-0.5249 1.14078 0.00001 2.14509 0.18548 3.01294 0.55639 0.87482 0.36395 1.5467 0.90285 2.01562 1.6167 0.4689 0.71388 0.72085 1.52223 0.75586 2.42505l-1.95264 0.14697c-0.10499-0.9728-0.46192-1.70766-1.0708-2.20459-0.60189-0.49689-1.49423-0.74534-2.677-0.74536-1.23178 0.00002-2.13111 0.22747-2.698 0.68238-0.5599 0.44793-0.83984 0.99032-0.83984 1.62719 0 0.55291 0.19946 1.00783 0.59839 1.36475 0.39192 0.35694 1.41373 0.72437 3.06543 1.10229 1.65868 0.37094 2.79597 0.69638 3.41186 0.97632 0.89582 0.41293 1.5572 0.93784 1.98413 1.57471 0.42691 0.62989 0.64037 1.35775 0.64038 2.18359-0.00001 0.81886-0.23447 1.59221-0.70337 2.32007-0.46892 0.72087-1.14429 1.28426-2.02612 1.69019-0.87484 0.39892-1.86166 0.59839-2.96045 0.59839-1.39274 0-2.56153-0.20297-3.50634-0.60889-0.93783-0.40592-1.6762-1.01481-2.21509-1.82666-0.53191-0.81884-0.81185-1.74267-0.83985-2.77148"/>
<path d="m644.52997 851.46436v-15.39014h2.03662v13.57397h7.57959v1.81617h-9.61621"/>
<path d="m655.96234 843.96875c0-2.55451 0.68587-4.55264 2.05762-5.99438 1.37174-1.44872 3.14241-2.17308 5.31201-2.1731 1.42073 0.00002 2.70149 0.33945 3.84229 1.01831 1.14077 0.67889 2.00861 1.62721 2.60351 2.84497 0.60187 1.21079 0.90282 2.58603 0.90283 4.12573-0.00001 1.56072-0.31495 2.95696-0.94482 4.18872-0.6299 1.23178-1.52223 2.1661-2.677 2.80298-1.1548 0.62989-2.40057 0.94483-3.73731 0.94483-1.44874 0-2.74349-0.34994-3.88428-1.04981s-2.00512-1.65519-2.59301-2.86596-0.88184-2.49154-0.88184-3.84229m2.09961 0.0315c0 1.85466 0.4969 3.31739 1.49072 4.38819 1.00081 1.0638 2.25358 1.5957 3.7583 1.5957 1.53271 0 2.79247-0.5389 3.7793-1.6167 0.9938-1.07779 1.49071-2.60701 1.49072-4.58764-0.00001-1.25276-0.21347-2.34456-0.64038-3.2754-0.41993-0.93781-1.03932-1.66217-1.85815-2.17309-0.81186-0.51789-1.72519-0.77684-2.73999-0.77686-1.44174 0.00002-2.68401 0.49692-3.72681 1.49073-1.03581 0.98682-1.55371 2.63851-1.55371 4.95507"/>
<path d="m680.49628 845.42798v-1.80567l6.51928-0.0105v5.71093c-1.00082 0.79786-2.03313 1.39974-3.09692 1.80567-1.06381 0.39892-2.15561 0.59839-3.27539 0.59839-1.51173 0-2.88697-0.32194-4.12573-0.96582-1.23178-0.65088-2.1626-1.58871-2.79248-2.81348-0.62989-1.22477-0.94483-2.59301-0.94483-4.10474 0-1.49771 0.31144-2.89395 0.93433-4.18872 0.62988-1.30174 1.53271-2.26756 2.70849-2.89746 1.17578-0.62987 2.53003-0.94481 4.06275-0.94482 1.11278 0.00001 2.11709 0.18198 3.01294 0.5459 0.90282 0.35694 1.60969 0.85735 2.1206 1.50122 0.51089 0.64389 0.89932 1.48373 1.16529 2.51953l-1.83716 0.5039c-0.23097-0.78384-0.51792-1.39972-0.86084-1.84765-0.34295-0.44791-0.83286-0.80484-1.46973-1.0708-0.63689-0.27294-1.34376-0.40941-2.1206-0.40943-0.93084 0.00002-1.73569 0.14349-2.41455 0.43042-0.67888 0.27996-1.22828 0.6509-1.6482 1.1128-0.41292 0.46192-0.73486 0.96933-0.96582 1.52221-0.39193 0.95184-0.58789 1.98414-0.58789 3.09693 0 1.37175 0.23445 2.51953 0.70337 3.44336 0.47591 0.92383 1.16528 1.6097 2.06812 2.05761 0.90282 0.44792 1.86164 0.67188 2.87646 0.67188 0.88183 0 1.74267-0.16797 2.58252-0.50391 0.83983-0.34293 1.47671-0.70686 1.91065-1.09179v-2.86597h-4.52466"/>
<path d="m688.31732 851.46436 5.9104-15.39014h2.19409l6.29883 15.39014h-2.32007l-1.79516-4.66114h-6.43531l-1.69018 4.66114h-2.1626m4.44068-6.31983h5.21752l-1.6062-4.26221c-0.48991-1.29474-0.85384-2.35854-1.09179-3.1914-0.19597 0.98683-0.47242 1.96664-0.82935 2.93945l-1.69018 4.51416"/>
<path d="m704.34784 851.46436v-15.39014h2.08911l8.0835 12.08325v-12.08325h1.95263v15.39014h-2.08911l-8.08349-12.09375v12.09375h-1.95264"/>
<path d="m724.21014 851.72681 4.46167-15.91504h1.51172l-4.45117 15.91504h-1.52222"/>
<path d="m741.33246 851.46436v-13.57398h-5.07056v-1.81616h12.19873v1.81616h-5.09155v13.57398h-2.03662"/>
<path d="m747.27435 851.46436 5.9104-15.39014h2.1941l6.29882 15.39014h-2.32007l-1.79516-4.66114h-6.4353l-1.69019 4.66114h-2.1626m4.44068-6.31983h5.21753l-1.60621-4.26221c-0.48991-1.29474-0.85384-2.35854-1.09179-3.1914-0.19597 0.98683-0.47242 1.96664-0.82935 2.93945l-1.69018 4.51416"/>
<path d="m770.52753 845.42798v-1.80567l6.51928-0.0105v5.71093c-1.00082 0.79786-2.03313 1.39974-3.09692 1.80567-1.06381 0.39892-2.15561 0.59839-3.27539 0.59839-1.51173 0-2.88697-0.32194-4.12573-0.96582-1.23178-0.65088-2.1626-1.58871-2.79248-2.81348-0.62989-1.22477-0.94483-2.59301-0.94483-4.10474 0-1.49771 0.31144-2.89395 0.93433-4.18872 0.62988-1.30174 1.53271-2.26756 2.70849-2.89746 1.17578-0.62987 2.53003-0.94481 4.06275-0.94482 1.11278 0.00001 2.11709 0.18198 3.01294 0.5459 0.90282 0.35694 1.60969 0.85735 2.1206 1.50122 0.51089 0.64389 0.89932 1.48373 1.16529 2.51953l-1.83716 0.5039c-0.23097-0.78384-0.51792-1.39972-0.86084-1.84765-0.34295-0.44791-0.83286-0.80484-1.46973-1.0708-0.63689-0.27294-1.34376-0.40941-2.1206-0.40943-0.93084 0.00002-1.73569 0.14349-2.41455 0.43042-0.67888 0.27996-1.22828 0.6509-1.6482 1.1128-0.41292 0.46192-0.73486 0.96933-0.96582 1.52221-0.39193 0.95184-0.58789 1.98414-0.58789 3.09693 0 1.37175 0.23445 2.51953 0.70337 3.44336 0.47591 0.92383 1.16528 1.6097 2.06812 2.05761 0.90282 0.44792 1.86164 0.67188 2.87646 0.67188 0.88183 0 1.74267-0.16797 2.58252-0.50391 0.83983-0.34293 1.47671-0.70686 1.91065-1.09179v-2.86597h-4.52466"/>
<path d="m779.95477 851.46436v-15.39014h2.03662v13.57397h7.57959v1.81617h-9.61621"/>
<path d="m792.35297 851.46436v-15.39014h2.03662v15.39014h-2.03662"/>
<path d="m797.94843 851.46436v-15.39014h2.08911l8.08349 12.08325v-12.08325h1.95264v15.39014h-2.08911l-8.0835-12.09375v12.09375h-1.95263"/>
<path d="m813.54852 851.46436v-15.39014h11.12793v1.81616h-9.09131v4.71362h8.51392v1.80567h-8.51392v5.23852h9.44825v1.81617h-11.48487"/>
<path d="m833.89374 851.46436v-15.39014h2.03662v6.31982h7.99951v-6.31982h2.03662v15.39014h-2.03662v-7.25415h-7.99951v7.25415h-2.03662"/>
<path d="m849.40985 851.46436v-15.39014h11.12793v1.81616h-9.09131v4.71362h8.51392v1.80567h-8.51392v5.23852h9.44824v1.81617h-11.48486"/>
<path d="m863.76068 851.46436v-15.39014h6.82373c1.37174 0.00001 2.41454 0.13999 3.12842 0.41992 0.71385 0.27296 1.28425 0.75937 1.71118 1.45923 0.42691 0.69988 0.64037 1.47324 0.64038 2.32007-0.00001 1.0918-0.35345 2.01213-1.0603 2.76098-0.70688 0.74887-1.79868 1.22478-3.27539 1.42774 0.53889 0.25896 0.94831 0.51441 1.22827 0.76636 0.59488 0.5459 1.15827 1.22827 1.69019 2.04711l2.677 4.18873h-2.56153l-2.03662-3.20191c-0.5949-0.92382-1.0848-1.63069-1.46972-2.1206-0.38494-0.48991-0.73138-0.83284-1.03931-1.02881-0.30095-0.19596-0.60889-0.33243-0.92383-0.40943-0.23096-0.049-0.60889-0.0735-1.13379-0.0735h-2.36206v6.83423h-2.03662m2.03662-8.5979h4.37769c0.93082 0 1.65868-0.0945 2.18359-0.28345 0.52489-0.19596 0.92382-0.5039 1.19678-0.92383 0.27294-0.42691 0.40941-0.88882 0.40942-1.38574-0.00001-0.72786-0.26596-1.32624-0.79785-1.79517-0.52491-0.4689-1.35776-0.70335-2.49853-0.70337h-4.8711v5.09156"/>
<path d="m879.30829 851.46436v-15.39014h11.12793v1.81616h-9.09131v4.71362h8.51392v1.80567h-8.51392v5.23852h9.44824v1.81617h-11.48486"/>
</g>
<image width="331" xlink:href="sample-logo.jpg" height="369" y="682.14789" x=".21428968"/>
</g>
</svg>
